<?xml version="1.0" encoding="utf-8"?>
<!-- Generator: Adobe Illustrator 21.0.2, SVG Export Plug-In . SVG Version: 6.00 Build 0)  -->
<svg version="1.1" id="Layer_1" xmlns="http://www.w3.org/2000/svg" xmlns:xlink="http://www.w3.org/1999/xlink" x="0px" y="0px"
	 viewBox="0 0 730 660" style="enable-background:new 0 0 730 660;" xml:space="preserve">
<style type="text/css">
	.st0{fill:#FFFFFF;}
</style>
<path class="st0" d="M731.8,229.9C724.2,53.5,584.5,1,504.1,1c-80.4,0-137.3,43.4-137.3,43.4C341.5,26.3,288.4-1,232.9-1
	C144.4-1,52.1,56.1,16.7,150.3c-35.4,94.2-7.2,203.6,89,314.4C201.8,575.5,367.3,659,367.3,659C536.6,580.4,739,395.9,731.8,229.9z
	 M367.6,148.3c0,0,80.9,98.4,80.9,144.4c0,52.7-57.5,76.8-74.5,76.8c-17,0-44.1-3.2-68.7-27.6c-24.6-24.4-24.1-65.9,2.2-110.1
	C333.7,187.6,367.6,148.3,367.6,148.3z M600.3,381.7c-76.5,115.2-233,193.3-233,193.3C192.7,489.1,73.6,338.3,73.6,232.3
	S166.4,72.7,228.1,72.7c61.7,0,93.3,29.8,93.3,29.8s-99.5,109.8-99.5,188.9c0,79.1,67.9,143.5,146.9,143.5
	c78.9,0,143.5-73.2,143.5-146.9c0-73.7-99-185-99-185c14.8-10.7,38.7-28.8,91.8-28.8c114.3,0,153.6,104,153.6,155.7
	C658.6,281.6,638.5,324.6,600.3,381.7z"/>
</svg>
